Coordinates
version=1
nRows=27
nColumns=12
inDegrees=yes

Units are S.I. units (second, meters, Newtons, ...)
Angles are in degrees

endheader
time	SC_y	SC_z	SC_x	AC_y	AC_z	AC_x	GH_y	GH_z	GH_yy	EL_x	PS_y
       0.0              -17.41          31.84          4.473          38.82         -5.939          6.971          141.3          2.887          47.47          23.18          36.79
   0.03649              -17.41          31.84          4.475          38.82         -5.937          6.971          141.4          2.894          47.43          23.19           36.8
   0.07297              -17.41          31.84          4.476          38.83         -5.935          6.971          141.4          2.901           47.4           23.2          36.81
    0.1095              -17.41          31.83          4.478          38.83         -5.933          6.971          141.4          2.908          47.36          23.21          36.82
    0.1459              -17.41          31.83           4.48          38.84          -5.93          6.971          141.4          2.916          47.32          23.22          36.83
    0.1824              -17.41          31.83          4.483          38.84         -5.928          6.971          141.4          2.925          47.28          23.23          36.85
    0.2189              -17.41          31.82          4.485          38.85         -5.925          6.972          141.4          2.934          47.23          23.24          36.86
    0.2554              -17.41          31.82          4.487          38.85         -5.922          6.972          141.4          2.944          47.19          23.25          36.87
    0.2919              -17.41          31.82           4.49          38.86         -5.919          6.972          141.4          2.954          47.13          23.27          36.89
    0.3284              -17.41          31.81          4.493          38.86         -5.916          6.972          141.4          2.965          47.08          23.28          36.91
    0.3649              -17.41          31.81          4.496          38.87         -5.912          6.972          141.4          2.977          47.02           23.3          36.92
    0.4014              -17.41           31.8          4.499          38.88         -5.909          6.973          141.4           2.99          46.96          23.32          36.94
    0.4378               -17.4           31.8          4.503          38.88         -5.905          6.973          141.4          3.004          46.89          23.34          36.96
    0.4743               -17.4          31.79          4.507          38.89           -5.9          6.973          141.4          3.019          46.81          23.36          36.98
    0.5108               -17.4          31.79          4.511           38.9         -5.896          6.973          141.4          3.035          46.73          23.38          37.01
    0.5473               -17.4          31.78          4.516          38.91          -5.89          6.974          141.4          3.053          46.64           23.4          37.03
    0.5838               -17.4          31.78          4.521          38.92         -5.885          6.974          141.4          3.072          46.55          23.43          37.06
    0.6203               -17.4          31.77          4.526          38.93         -5.879          6.974          141.5          3.093          46.45          23.46          37.09
    0.6568               -17.4          31.76          4.532          38.95         -5.872          6.975          141.5          3.116          46.33          23.49          37.13
    0.6932               -17.4          31.75          4.538          38.96         -5.865          6.975          141.5          3.141          46.21          23.52          37.16
    0.7297               -17.4          31.74          4.545          38.97         -5.857          6.976          141.5          3.168          46.07          23.56           37.2
    0.7662               -17.4          31.73          4.553          38.99         -5.848          6.976          141.5          3.198          45.92           23.6          37.25
    0.8027               -17.4          31.72          4.562          39.01         -5.838          6.977          141.5          3.231          45.76          23.65           37.3
    0.8392              -17.39          31.71          4.571          39.03         -5.827          6.978          141.6          3.268          45.58           23.7          37.35
    0.8757              -17.39          31.69          4.582          39.05         -5.815          6.978          141.6          3.309          45.37          23.75          37.41
    0.9122              -17.39          31.68          4.594          39.08         -5.802          6.979          141.6          3.355          45.15          23.81          37.48
    0.9487              -17.39          31.66          4.607           39.1         -5.787           6.98          141.6          3.406          44.89          23.88          37.55
